<?xml version="1.0" standalone="no"?>
<!DOCTYPE svg PUBLIC "-//W3C//DTD SVG 20010904//EN"
 "http://www.w3.org/TR/2001/REC-SVG-20010904/DTD/svg10.dtd">
<svg version="1.0" xmlns="http://www.w3.org/2000/svg"
 width="600.000000pt" height="600.000000pt" viewBox="0 0 600.000000 600.000000"
 preserveAspectRatio="xMidYMid meet">
<metadata>
Created by potrace 1.11, written by Peter Selinger 2001-2013
</metadata>
<g transform="translate(0.000000,600.000000) scale(0.100000,-0.100000)"
fill="#000000" stroke="none">
<path d="M1919 5490 c-36 -11 -151 -54 -255 -96 -421 -170 -511 -205 -657
-253 -84 -28 -256 -77 -383 -110 -310 -81 -378 -112 -410 -188 -56 -132 69
-516 272 -838 131 -208 199 -369 219 -517 3 -26 14 -57 24 -69 65 -81 266 131
367 388 21 51 39 92 41 90 1 -2 -4 -38 -12 -79 -40 -211 -38 -486 6 -715 48
-252 135 -552 216 -740 34 -79 37 -83 77 -94 60 -17 256 -14 363 5 352 62 629
229 765 461 213 365 349 1061 352 1800 1 372 -19 540 -81 678 l-27 59 -55 -7
c-31 -3 -98 -13 -149 -21 -107 -18 -97 -21 -202 68 -200 170 -250 198 -342
197 -35 0 -93 -9 -129 -19z m203 -2037 c22 -20 23 -70 1 -95 -36 -40 -113 -8
-113 49 0 55 70 85 112 46z"/>
<path d="M3883 5484 c-27 -14 -104 -71 -169 -126 -169 -142 -147 -132 -246
-114 -45 8 -107 18 -136 21 l-52 7 -29 -64 c-63 -138 -86 -370 -78 -762 11
-475 58 -842 156 -1219 90 -347 213 -587 358 -702 182 -144 429 -239 688 -265
91 -9 222 -2 275 15 17 6 32 39 91 194 84 220 176 588 198 793 21 187 8 456
-29 613 -5 22 -8 41 -6 42 1 1 21 -46 45 -106 106 -271 320 -489 375 -383 7
15 19 59 25 99 11 74 48 187 83 258 11 22 68 119 126 215 58 96 125 217 150
270 91 193 153 434 138 534 -17 108 -82 141 -490 246 -269 69 -413 118 -801
275 -181 73 -367 145 -413 159 -112 35 -191 35 -259 0z m-3 -2034 c23 -23 25
-39 8 -75 -20 -45 -78 -47 -110 -4 -48 64 45 136 102 79z"/>
<path d="M2915 1829 c-232 -15 -378 -86 -442 -217 -24 -49 -28 -69 -28 -142 0
-75 4 -93 32 -153 78 -164 301 -310 508 -332 168 -18 429 105 539 255 97 132
109 299 28 415 -93 134 -314 194 -637 174z"/>
</g>
</svg>
